# xmcd CD database file
#
# Track frame offsets:
#	150
#	22095
#	40886
#	55116
#	73500
#	90628
#	97149
#	112954
#	123852
#	137195
#	155214
#	176241
#	195067
#	207885
#	216508
#	223957
#	241490
#	258773
#	278458
#
# Disc length: 3857 seconds
#
# Revision: 0
# Processed by: cddbd v1.5.2PL0 Copyright (c) Steve Scherf et al.
# Submitted via: CDex 1.51
#
DISCID=1d0f0f13
DTITLE=Enya - Compil Enya 1
DYEAR=2005
DGENRE=New Age
TTITLE0=Enya - Hope has a Place
TTITLE1=Afer Ventus
TTITLE2=Enya - Aldebaran
TTITLE3=Enya - Angeles
TTITLE4=Enya - Anywhere Is
TTITLE5=Enya - Bard Dance
TTITLE6=Enya - Boadicea
TTITLE7=Enya - Enya - Bonus en Japón
TTITLE8=Enya - Enya - Book Of Days
TTITLE9=Caribbean Blue
TTITLE10=China Roses
TTITLE11=Enya - Cursum Perficio
TTITLE12=Enya - Deora Ar Mo Chroi
TTITLE13=Enya - Ebudae
TTITLE14=Enya - Epona
TTITLE15=Enya - Evacuée
TTITLE16=Enya - Evening Falls
TTITLE17=Enya - Exile
TTITLE18=Enya - From Where I Am
EXTD=YEAR: 2005
EXTT0=
EXTT1=
EXTT2=
EXTT3=
EXTT4=
EXTT5=
EXTT6=
EXTT7=
EXTT8=
EXTT9=
EXTT10=
EXTT11=
EXTT12=
EXTT13=
EXTT14=
EXTT15=
EXTT16=
EXTT17=
EXTT18=
PLAYORDER=
